<?xml version="1.0" encoding="UTF-8"?>
<svg xmlns="http://www.w3.org/2000/svg" xmlns:xlink="http://www.w3.org/1999/xlink" width="50px" height="66px" viewBox="0 0 50 66" version="1.1">
<g id="surface1">
<path style=" stroke:none;fill-rule:nonzero;fill:rgb(0%,0%,0%);fill-opacity:1;" d="M 25 0 C 11.195312 0 0 11.082031 0 24.75 C 0 34.730469 3.511719 37.515625 22.433594 64.671875 C 23.675781 66.449219 26.328125 66.449219 27.570312 64.671875 C 46.484375 37.511719 50 34.726562 50 24.75 C 50 11.082031 38.800781 0 25 0 Z M 25 34.945312 C 19.253906 34.945312 14.582031 30.320312 14.582031 24.632812 C 14.582031 18.945312 19.257812 14.320312 25 14.320312 C 30.742188 14.320312 35.417969 18.945312 35.417969 24.632812 C 35.417969 30.320312 30.742188 34.945312 25 34.945312 Z M 25 34.945312 "/>
</g>
</svg>
